# AST/ASF file generated using VICON BodyLanguage
# -----------------------------------------------
:version 1.10
:name VICON
:units
  mass 1.0
  length 0.45
  angle deg
:documentation
   .ast/.asf automatically generated from VICON data using
   VICON BodyBuilder and BodyLanguage model FoxedUp or BRILLIANT.MOD
:root
   order TX TY TZ RX RY RZ
   axis XYZ
   position 0 0 0  
   orientation 0 0 0 
:bonedata
  begin
     id 1 
     name lhipjoint
     direction 0.558404 -0.748506 0.357664 
     length 2.4234 
     axis 0 0 0  XYZ
  end
  begin
     id 2 
     name lfemur
     direction 0.34202 -0.939693 0  
     length 7.14567  
     axis 0 0 20  XYZ
    dof rx ry rz
    limits (-160.0 20.0)
           (-70.0 70.0)
           (-60.0 70.0)
  end
  begin
     id 3 
     name ltibia
     direction 0.34202 -0.939693 0   
     length 8.13956   
     axis 0 0 20   XYZ
    dof rx
    limits (-10.0 170.0)
  end
  begin
     id 4 
     name lfoot
     direction 0.0791314 -0.217412 0.972867   
     length 2.00134   
     axis -90 7.62852e-016 20   XYZ
    dof rx rz
    limits (-45.0 90.0)
           (-70.0 20.0)
  end
  begin
     id 5 
     name ltoes
     direction 1.53547e-011 -4.21922e-011 1   
     length 1.00735   
     axis -90 7.62852e-016 20   XYZ
    dof rx
    limits (-90.0 20.0)
  end
  begin
     id 6 
     name rhipjoint
     direction -0.496392 -0.78327 0.374276   
     length 2.31584  
     axis 0 0 0  XYZ 
  end
  begin
     id 7 
     name rfemur
     direction -0.34202 -0.939693 0   
     length 7.47417   
     axis 0 0 -20   XYZ
    dof rx ry rz
    limits (-160.0 20.0)
           (-70.0 70.0)
           (-70.0 60.0)
  end
  begin
     id 8 
     name rtibia
     direction -0.34202 -0.939693 0   
     length 7.69071   
     axis 0 0 -20   XYZ
    dof rx
    limits (-10.0 170.0)
 end
 begin
     id 9 
     name rfoot
     direction -0.103069 -0.28318 0.953512   
     length 2.16135  
     axis -90 -7.62852e-016 -20   XYZ
    dof rx rz
    limits (-45.0 90.0)
           (-20.0 70.0)
  end
  begin
     id 10 
     name rtoes
     direction -1.53581e-011 -4.21904e-011 1   
     length 1.07867   
     axis -90 -7.62852e-016 -20   XYZ
    dof rx
    limits (-90.0 20.0)
  end
  begin
     id 11 
     name lowerback
     direction -0.0258961 0.994776 -0.0987407   
     length 2.19412   
     axis 0 0 0   XYZ
    dof rx ry rz
    limits (-20.0 45.0)
           (-30.0 30.0)
           (-30.0 30.0)
  end
  begin
     id 12 
     name upperback
     direction 0.0402454 0.999185 0.00320666   
     length 2.18445   
     axis 0 0 0   XYZ
    dof rx ry rz
    limits (-20.0 45.0)
           (-30.0 30.0)
           (-30.0 30.0)
  end
  begin
     id 13 
     name thorax
     direction 0.0519376 0.997415 0.0496558   
     length 2.21487   
     axis 0 0 0   XYZ
    dof rx ry rz
    limits (-20.0 45.0)
           (-30.0 30.0)
           (-30.0 30.0)
  end
  begin
     id 14 
     name lowerneck
     direction -0.0921276 0.983211 0.157506   
     length 1.61201   
     axis 0 0 0   XYZ
    dof rx ry rz
    limits (-20.0 45.0)
           (-30.0 30.0)
           (-30.0 30.0)
  end
  begin
     id 15 
     name upperneck
     direction 0.0820814 0.98162 -0.172292   
     length 1.65275   
     axis 0 0 0   XYZ
    dof rx ry rz
    limits (-20.0 45.0)
           (-30.0 30.0)
           (-30.0 30.0)
  end
  begin
     id 16
     name head
     direction 0.0336554 0.996413 -0.0776455  
     length 1.66415  
     axis 0 0 0   XYZ
    dof rx ry rz
    limits (-20.0 45.0)
           (-30.0 30.0)
           (-30.0 30.0)
  end
  begin
     id 17 
     name lclavicle
     direction 0.94696 0.284418 -0.149576  
     length 3.41447  
     axis 0 0 0   XYZ
    dof ry rz
    limits (-20.0 10.0)
           (0.0 20.0)
  end
  begin
     id 18 
     name lhumerus
     direction 1 -0.000130264 -9.81312e-005   
     length 5.19964   
     axis 180 -30 -90   XYZ
    dof rx ry rz
    limits (-60.0 90.0)
           (-90.0 90.0)
           (-90.0 90.0)
  end
  begin
     id 19
     name lradius
     direction 1 -4.48961e-011 1.43854e-026   
     length 3.32189   
     axis 180 -30 -90   XYZ
    dof rx
    limits (-10.0 170.0)
  end
  begin
     id 20
     name lwrist
     direction 1 -4.48958e-011 3.1502e-026   
     length 1.66095   
     axis -1.97692e-014 90 90   XYZ
    dof ry
    limits (-180.0 0.0)
 end
  begin
     id 21 
     name lhand
     direction 1 -4.48927e-011 6.3004e-026   
     length 0.645616   
     axis -4.02019e-014 90 90   XYZ
    dof rx rz
    limits (-90.0 90.0)
           (-45.0 45.0)
  end
  begin
     id 22 
     name lfingers
     direction 1 -4.4904e-011 1.26008e-025   
     length 0.520512   
     axis -8.04039e-014 90 90   XYZ
    dof rx
    limits (0.0 90.0)
  end
  begin
     id 23
     name lthumb
     direction 0.707107 -6.34947e-011 0.707107   
     length 0.747354   
     axis -90 45 2.85299e-015   XYZ
    dof rx rz
    limits (-45.0 45.0)
           (-45.0 45.0)
  end
  begin
     id 24 
     name rclavicle
     direction -0.909391 0.383475 -0.161107   
     length 3.25176  
     axis 0 0 0   XYZ 
    dof ry rz
    limits (-10.0 20.0)
           (-20.0 0.0)
  end
  begin
     id 25 
     name rhumerus
     direction -1 -4.48965e-011 -1.81384e-027  
     length 5.6595   
     axis 180 30 90   XYZ
    dof rx ry rz
    limits (-90.0 60.0)
           (-90.0 90.0)
           (-90.0 90.0)
  end
  begin
     id 26 
     name rradius
     direction -1 -4.48996e-011 -8.09397e-027   
     length 3.37604   
     axis 180 30 90   XYZ
    dof rx
    limits (-10.0 170.0)
  end
  begin
     id 27 
     name rwrist
     direction -1 -4.48927e-011 -1.56669e-026   
     length 1.68802   
     axis 1.21142e-014 -90 -90   XYZ
    dof ry
    limits (-180.0 0.0)
  end
  begin
     id 28
     name rhand
     direction -1 -4.48912e-011 -3.13339e-026   
     length 0.824702   
     axis 1.99937e-014 -90 -90   XYZ
    dof rx rz
    limits (-90.0 90.0)
           (-45.0 45.0)
  end
  begin
     id 29
     name rfingers
     direction -1 -4.49011e-011 -6.26677e-026   
     length 0.664896   
     axis 3.99874e-014 -90 -90   XYZ
    dof rx
    limits (0.0 90.0)
  end
  begin
     id 30
     name rthumb
     direction -0.707107 -6.34931e-011 0.707107   
     length 0.954662   
     axis -90 -45 -2.85299e-015   XYZ
    dof rx rz
    limits (-45.0 45.0)
           (-45.0 45.0)
  end
:hierarchy
  begin
    root lhipjoint rhipjoint lowerback
    lhipjoint lfemur
    lfemur ltibia
    ltibia lfoot
    lfoot ltoes
    rhipjoint rfemur
    rfemur rtibia
    rtibia rfoot
    rfoot rtoes
    lowerback upperback
    upperback thorax
    thorax lowerneck lclavicle rclavicle
    lowerneck upperneck
    upperneck head
    lclavicle lhumerus
    lhumerus lradius
    lradius lwrist
    lwrist lhand lthumb
    lhand lfingers
    rclavicle rhumerus
    rhumerus rradius
    rradius rwrist
    rwrist rhand rthumb
    rhand rfingers
  end

#!OML:ASF F:\VICON\USERDATA\INSTALL\rory3\rory3.ASF
:FULLY-SPECIFIED
:DEGREES
296
root 3.12898 14.3615 0.419702 -8.16934 -26.3266 -6.28748
lowerback 19.8097 0.730165 -1.1188
upperback 5.07589 1.22539 9.25691
thorax -5.8006 0.576225 10.5838
lowerneck -1.34903 -9.35596 -15.9908
upperneck 29.4238 -14.3548 8.3008
head 11.6187 -7.58411 4.11752
rclavicle 5.56597e-014 -4.45278e-014
rhumerus -37.7928 -23.0336 -45.7029
rradius 47.8599
rwrist -11.5388
rhand -25.4005 20.9239
rfingers 7.12502
rthumb 1.12474 -9.05288
lclavicle 5.56597e-014 -4.45278e-014
lhumerus -43.0065 34.0184 36.5773
lradius 46.7962
lwrist 13.9935
lhand -21.2624 42.1682
lfingers 7.12502
lthumb 5.12102 72.0863
rfemur -19.7144 10.6122 -12.4195
rtibia 78.9433
rfoot -0.319852 -23.0155
rtoes 36.0435
lfemur -48.8523 8.05067 -31.1831
ltibia 71.9347
lfoot -8.92361 1.63414
ltoes 25.639
297
root 3.14709 14.3196 0.670267 -9.345 -27.0589 -4.96127
lowerback 20.4258 0.974078 -1.89474
upperback 5.4388 1.36356 9.0587
thorax -5.76395 0.636339 10.798
lowerneck -1.34597 -9.23581 -16.4298
upperneck 29.8332 -14.1205 8.10484
head 11.7745 -7.54805 4.14971
rclavicle 6.24184e-014 -1.01778e-013
rhumerus -38.4305 -22.9049 -45.7429
rradius 46.4627
rwrist -12.9735
rhand -24.7586 20.8186
rfingers 7.12502
rthumb 1.74471 -9.15398
lclavicle 6.24184e-014 -1.01778e-013
lhumerus -40.7048 33.4301 40.4296
lradius 44.821
lwrist 12.906
lhand -18.3537 39.6047
lfingers 7.12502
lthumb 7.92897 69.436
rfemur -23.4697 10.3818 -12.8539
rtibia 75.6149
rfoot -0.251665 -23.9466
rtoes 35.0657
lfemur -47.7588 9.0069 -32.7343
ltibia 72.7219
lfoot -10.3594 1.83503
ltoes 25.8064
298
root 3.15804 14.275 0.915982 -10.4512 -27.182 -3.64686
lowerback 20.9268 0.97439 -2.79525
upperback 5.74572 1.14979 8.88409
thorax -5.65388 0.52052 11.2093
lowerneck -1.47872 -9.03527 -16.4258
upperneck 30.0792 -13.6531 7.49939
head 11.7836 -7.39467 3.98319
rclavicle 2.38542e-014 -5.56597e-014
rhumerus -38.8635 -22.5656 -46.0041
rradius 45.1698
rwrist -13.8689
rhand -24.403 20.6934
rfingers 7.12502
rthumb 2.08811 -9.27618
lclavicle 2.38542e-014 -5.56597e-014
lhumerus -38.675 32.0736 44.3793
lradius 43.323
lwrist 12.3246
lhand -15.8828 38.7401
lfingers 7.12502
lthumb 10.3132 68.4672
rfemur -26.6049 9.51075 -12.991
rtibia 71.6526
rfoot -2.10448 -26.1118
rtoes 39.8347
lfemur -46.6372 9.54155 -34.3899
ltibia 73.298
lfoot -11.7779 1.98614
ltoes 26.8401
299
root 3.15933 14.2234 1.13388 -10.5982 -26.9254 -3.72491
lowerback 21.4623 0.638416 -2.81366
upperback 5.86496 0.70939 9.13213
thorax -5.70732 0.295024 11.6533
lowerneck -1.75953 -8.73933 -15.9399
upperneck 30.1708 -12.9034 6.35536
head 11.6429 -7.11039 3.5702
rclavicle -3.97569e-016 -7.31528e-014
rhumerus -39.0023 -21.834 -46.4337
rradius 43.8782
rwrist -14.2369
rhand -23.9292 20.9372
rfingers 7.12502
rthumb 2.54576 -9.02733
lclavicle -3.97569e-016 -7.31528e-014
lhumerus -36.8935 30.1844 48.5111
lradius 42.4106
lwrist 13.2294
lhand -15.5604 39.5983
lfingers 7.12502
lthumb 10.6242 69.3097
rfemur -29.6965 8.28438 -11.3422
rtibia 67.283
rfoot -4.19944 -28.3129
rtoes 40.9108
lfemur -46.1335 9.77195 -34.7987
ltibia 73.9447
lfoot -12.91 1.8491
ltoes 28.5825
300
root 3.15289 14.1686 1.35382 -11.2501 -25.6317 -1.69173
lowerback 21.8521 0.296053 -4.6249
upperback 5.60841 -0.129153 8.8116
thorax -5.98605 -0.076154 12.6539
lowerneck -1.73011 -8.47107 -15.8041
upperneck 30.2329 -12.3159 5.56449
head 11.52 -6.91367 3.33656
rclavicle 2.42517e-014 2.70347e-014
rhumerus -39.3747 -20.9453 -46.7631
rradius 42.7213
rwrist -14.1394
rhand -22.9192 21.6046
rfingers 7.12502
rthumb 3.52111 -8.34604
lclavicle 2.42517e-014 2.70347e-014
lhumerus -35.07 28.4828 52.4079
lradius 41.3517
lwrist 13.6462
lhand -15.0686 38.0672
lfingers 7.12502
lthumb 11.0986 67.7537
rfemur -32.5234 5.77488 -11.9048
rtibia 62.4606
rfoot -5.1145 -29.9228
rtoes 42.8411
lfemur -45.4731 9.23524 -37.6417
ltibia 74.1428
lfoot -13.9559 1.92252
ltoes 29.6956
301
root 3.16225 14.1514 1.58891 -11.1271 -24.3947 -1.61006
lowerback 21.9876 -0.397461 -4.66128
upperback 5.5359 -1.04534 8.90354
thorax -5.9005 -0.533459 13.0473
lowerneck -1.66448 -8.24125 -15.9826
upperneck 30.1581 -11.9085 5.3382
head 11.426 -6.77381 3.33919
rclavicle 1.27222e-014 2.70347e-014
rhumerus -39.7057 -20.035 -47.3554
rradius 41.8802
rwrist -13.489
rhand -21.8593 22.1592
rfingers 7.12502
rthumb 4.54467 -7.77208
lclavicle 1.27222e-014 2.70347e-014
lhumerus -33.1751 27.3976 55.8855
lradius 40.2255
lwrist 12.5563
lhand -13.558 35.6129
lfingers 7.12502
lthumb 12.5553 65.2157
rfemur -34.7967 3.49255 -10.091
rtibia 57.2315
rfoot -1.5225 -37.0896
rtoes 47.5952
lfemur -44.6486 8.75135 -38.4725
ltibia 74.3427
lfoot -14.8638 1.50556
ltoes 30.7946
302
root 3.18962 14.1689 1.82775 -10.7966 -23.2264 -1.53512
lowerback 21.724 -1.09727 -4.67314
upperback 5.55318 -1.97024 8.97609
thorax -5.50044 -1.01977 13.3608
lowerneck -2.00974 -8.03202 -15.9511
upperneck 30.125 -11.4847 5.11237
head 11.4093 -6.59316 3.29226
rclavicle -2.14687e-014 -2.38542e-014
rhumerus -39.8554 -19.1662 -48.0863
rradius 41.1426
rwrist -12.4192
rhand -20.9715 22.712
rfingers 7.12502
rthumb 5.40188 -7.19919
lclavicle -2.14687e-014 -2.38542e-014
lhumerus -31.3089 26.2023 59.3652
lradius 39.5053
lwrist 11.4184
lhand -13.3613 33.6932
lfingers 7.12502
lthumb 12.7449 63.2843
rfemur -37.3333 1.05576 -8.10761
rtibia 52.2793
rfoot 0.51065 -45.6628
rtoes 52.8384
lfemur -43.82 8.28367 -39.3019
ltibia 74.1793
lfoot -15.5962 0.990157
ltoes 32.1123
303
root 3.21684 14.1944 2.06245 -10.3459 -22.4366 -1.53126
lowerback 21.4021 -1.52997 -4.50947
upperback 5.45936 -2.49363 9.07596
thorax -5.30255 -1.28983 13.4874
lowerneck -2.25304 -7.94504 -15.9122
upperneck 30.2207 -11.259 4.86965
head 11.4497 -6.5076 3.21526
rclavicle -1.15295e-014 -4.45278e-014
rhumerus -40.4773 -19.059 -48.1915
rradius 40.2702
rwrist -10.9525
rhand -19.9802 23.3245
rfingers 7.12502
rthumb 6.35891 -6.56004
lclavicle -1.15295e-014 -4.45278e-014
lhumerus -29.2948 24.209 63.1161
lradius 39.0821
lwrist 10.1468
lhand -14.5498 30.7634
lfingers 7.12502
lthumb 11.599 60.4224
rfemur -40.197 -0.929756 -5.89011
rtibia 47.7693
rfoot -2.15903 -55.1088
rtoes 58.4338
lfemur -43.1467 8.11185 -39.9671
ltibia 73.9724
lfoot -16.2564 0.513639
ltoes 33.3651
304
root 3.26429 14.26 2.2766 -9.8585 -21.9725 -1.60585
lowerback 21.0335 -1.83828 -4.35661
upperback 5.39303 -2.85979 9.16731
thorax -5.09099 -1.48411 13.5604
lowerneck -2.48702 -7.8846 -15.5972
upperneck 30.2716 -11.0438 4.41691
head 11.4389 -6.41798 3.01571
rclavicle -2.22639e-014 -3.49861e-014
rhumerus -41.2921 -18.8382 -48.4637
rradius 39.7119
rwrist -9.57011
rhand -19.2547 23.5717
rfingers 7.12502
rthumb 7.05927 -6.29053
lclavicle -2.22639e-014 -3.49861e-014
lhumerus -27.1749 22.1394 66.6273
lradius 38.84
lwrist 8.08033
lhand -14.8836 29.7899
lfingers 7.12502
lthumb 11.277 59.4667
rfemur -42.8564 -3.53677 -2.75559
rtibia 44.9917
rfoot -43.396 -49.4874
rtoes 69.1149
lfemur -42.3256 8.20089 -40.4634
ltibia 73.3732
lfoot -16.6454 0.0598209
ltoes 34.8336
305
root 3.2813 14.2862 2.50607 -9.58264 -21.7209 -1.47136
lowerback 20.6452 -2.09127 -4.46058
upperback 5.47948 -3.22629 9.14081
thorax -4.69181 -1.69665 13.633
lowerneck -2.87813 -7.7641 -15.0562
upperneck 30.2062 -10.7402 3.97403
head 11.3861 -6.25795 2.79085
rclavicle -1.0138e-013 1.90833e-014
rhumerus -42.0134 -17.6034 -49.5752
rradius 39.7556
rwrist -9.26272
rhand -19.4313 23.1475
rfingers 7.12502
rthumb 6.88881 -6.72047
lclavicle -1.0138e-013 1.90833e-014
lhumerus -25.044 20.0349 69.8151
lradius 38.7904
lwrist 6.02531
lhand -14.2135 32.2073
lfingers 7.12502
lthumb 11.9233 61.8477
rfemur -45.9171 -6.60332 0.899971
rtibia 43.2288
rfoot -36.0663 -51.0271
rtoes 68.2607
lfemur -41.5035 8.71938 -41.134
ltibia 72.944
lfoot -17.1637 -0.265829
ltoes 35.4519
